Coordinates
version=1
nRows=15
nColumns=19
inDegrees=yes

Units are S.I. units (second, meters, Newtons, ...)
If the header above contains a line with 'inDegrees', this indicates whether rotational values are in degrees (yes) or radians (no).

endheader
time	pelvis_tilt	pelvis_list	pelvis_rotation	pelvis_tx	pelvis_ty	pelvis_tz	hip_flexion_r	hip_adduction_r	hip_rotation_r	knee_angle_r	knee_angle_r_beta	ankle_angle_r	hip_flexion_l	hip_adduction_l	hip_rotation_l	knee_angle_l	knee_angle_l_beta	ankle_angle_l
     11.68666667	      4.62497716	     -5.10980457	     -1.92486516	      2.26302766	      0.99086707	      1.01091355	     14.04986663	      6.67026585	    -13.83628767	     18.90100442	      0.32988476	     -3.50258540	    -18.17287492	    -12.86380533	    -20.24273004	     56.78726537	      0.99112475	     -5.64680164
     11.69333333	      5.05616657	     -5.49549913	     -2.00103158	      2.26311588	      0.98613974	      1.01196829	     13.11410234	      7.23646722	    -14.19723506	     19.44716121	      0.33941699	     -2.46194091	    -17.33151427	    -13.48136845	    -19.04585486	     60.54151733	      1.05664881	     -4.89376069
     11.70000000	      5.32150521	     -5.79534462	     -2.10846868	      2.26291146	      0.98107281	      1.01273858	     12.46289678	      7.66676046	    -14.35374155	     20.41472188	      0.35630411	     -0.92019689	    -16.17148713	    -13.86759238	    -17.67942817	     64.29022709	      1.12207614	     -4.20153211
     11.70666667	      5.53807868	     -6.03448466	     -2.12020732	      2.26241926	      0.97588424	      1.01322986	     11.93961466	      7.96486974	    -14.53403926	     21.68755569	      0.37851925	      0.97664254	    -14.82375238	    -14.19342892	    -16.26057323	     68.00682037	      1.18694293	     -3.55380367
     11.71333333	      5.65037882	     -6.20582317	     -2.15697856	      2.26160208	      0.97059890	      1.01354049	     11.61244347	      8.15194484	    -14.59042991	     23.25241511	      0.40583120	      3.20891408	    -13.26629235	    -14.39881086	    -14.86852149	     71.65555981	      1.25062545	     -2.93294003
     11.72000000	      5.77639564	     -6.33594150	     -2.12231060	      2.26048454	      0.96548039	      1.01356925	     11.32049006	      8.24312808	    -14.60998735	     24.98916230	      0.43614316	      5.63779956	    -11.61119432	    -14.53542200	    -13.44451675	     75.19665411	      1.31242920	     -2.36236786
     11.72666667	      5.84883207	     -6.41701423	     -2.09624011	      2.25907588	      0.96056192	      1.01343704	     11.13297376	      8.25044506	    -14.53081768	     26.85913230	      0.46878029	      8.13305613	     -9.81730651	    -14.59799658	    -12.08091538	     78.60113447	      1.37184859	     -1.83119556
     11.73333333	      5.88498873	     -6.44483812	     -2.06576772	      2.25738079	      0.95596738	      1.01315022	     11.01125395	      8.17501301	    -14.35803773	     28.78002864	      0.50230626	     10.59761002	     -7.90267604	    -14.58486176	    -10.76362164	     81.83922977	      1.42836402	     -1.35530847
     11.74000000	      5.88445411	     -6.41341175	     -2.05817324	      2.25538815	      0.95179669	      1.01283332	     10.93159840	      8.02058340	    -14.09938877	     30.68837500	      0.53561319	     12.89704815	     -5.88264019	    -14.51839879	     -9.54990149	     84.88236248	      1.48147670	     -0.88637634
     11.74666667	      5.93291111	     -6.31026427	     -1.99366786	      2.25317592	      0.94826898	      1.01239541	     10.75352522	      7.76885162	    -13.82439312	     32.46317720	      0.56658933	     14.97163923	     -3.82700478	    -14.34907565	     -8.32117451	     87.68541517	      1.53039920	     -0.51178294
     11.75333333	      5.92775689	     -6.15673169	     -1.97740530	      2.25079137	      0.94528830	      1.01203027	     10.57025505	      7.46923640	    -13.47595610	     34.08033683	      0.59481409	     16.77895930	     -1.68001147	    -14.13182471	     -7.21381341	     90.23003542	      1.57481120	     -0.15486439
     11.76000000	      6.05013491	     -5.92752237	     -1.88355777	      2.24828313	      0.94312861	      1.01160971	     10.13403156	      7.06483810	    -13.20598605	     35.43491300	      0.61845590	     18.28038501	      0.38230793	    -13.81522103	     -6.11274515	     92.46501843	      1.61381901	      0.13376390
     11.76666667	      6.04687941	     -5.65302654	     -1.86957218	      2.24573313	      0.94152164	      1.01136222	      9.71198351	      6.64241031	    -12.86481318	     36.52949279	      0.63755992	     19.47548601	      2.58176383	    -13.46518752	     -5.16229400	     94.40422415	      1.64766454	      0.40538675
     11.77333333	      6.45142777	     -5.38074295	     -1.82631669	      2.24330300	      0.94106176	      1.01123583	      8.62335763	      6.24174370	    -12.55442259	     37.18725519	      0.64904004	     20.42853515	      4.26187352	    -13.15028845	     -4.37190883	     95.92091996	      1.67413587	      0.66238608
     11.78000000	      6.45140453	     -4.93986877	     -1.67949165	      2.24089974	      0.94089341	      1.01100946	      7.86455886	      5.63320925	    -12.46720689	     37.62464381	      0.65667391	     21.01896770	      6.47563056	    -12.56821820	     -3.44932985	     97.17385274	      1.69600368	      0.79204868
